<?xml version="1.0" standalone="yes"?>
<svg xmlns="http://www.w3.org/2000/svg" width="500" height="253">
<path style="fill:#1b9a36; stroke:none;" d="M393 27C404.804 26.4593 413.741 19.1028 414 7C401.976 7.1075 393.557 14.8359 393 27M377 14C377.845 22.1941 383.013 26.2974 391 27C389.136 19.1562 385.376 14.4354 377 14M353 21C357.25 29.1185 365.507 32.5782 374 29C368.591 21.3903 362.023 18.8518 353 21M395 37C404.705 39.3094 413.813 36.4914 418 27C408.169 25.1748 399.012 26.6725 395 37M363 42C369.432 41.4163 373.263 38.6135 374 32C368.008 32.9518 364.224 35.9392 363 42M378 33C381.429 38.5058 387.627 43.7415 389.486 50C390.74 54.2225 389.246 58.7368 389.039 63C388.536 73.3449 387.001 83.6316 387 94C381.292 90.7046 371.109 84.2402 368.603 77.9105C367.436 74.9613 368 71.1138 368 68C366.787 70.8897 367.002 73.8741 367 77C364.487 75.8941 362.323 74.4769 360 73C364.716 79.7749 370.648 85.8652 376.169 92C379.167 95.3314 383.398 98.6651 384.972 103C386.407 106.952 385 112.783 385 117C371.812 114.271 359.365 107.801 346 106L344 91C342.231 95.2166 343 100.459 343 105C340.024 103.615 337.236 102.557 334 102C338.411 105.338 348.152 106.485 350.883 111.394C353.009 115.215 350.182 122.756 350 127C352.832 122.521 354.36 117.031 356 112C361.707 115.318 367.949 117.933 374 120.576C377.049 121.907 381.216 123.11 382.958 126.213C384.443 128.86 383.286 132.177 383.09 135C382.625 141.664 382.295 148.371 381.424 155C378.984 173.584 377.536 193.26 376.986 212C376.817 217.772 374.294 225.317 376.603 230.891C379.474 237.819 394.094 236.781 399.999 235.481C403.285 234.758 406.245 233.556 406.852 229.945C408.373 220.897 406.047 210.063 405.17 201C403.294 181.614 401.054 161.468 401 142C406.816 141.141 414.296 135.745 420 136.774C424.699 137.621 428.907 142.646 433 145C430.296 141.115 427.116 137.568 424 134C439.18 128.865 453.813 122.138 469 117C462.033 114.529 451.393 120.396 444 121L444 102C440.989 107.664 443.279 116.592 439.142 121.487C436.583 124.514 430.666 125.049 427 125.739C417.903 127.452 409.082 130.238 400 132C399.915 121.778 398.8 111.182 397.83 101C397.405 96.533 395.897 91.2614 398.028 87C399.783 83.4903 403.27 80.7315 406 78C412.417 71.58 419.765 65.4311 425 58C414.861 64.7057 405.168 73.0157 396 81C395.37 66.3243 393 51.7135 393 37L391 37L391 44C386.931 40.0149 382.703 36.2159 378 33M415 36C415.413 45.0132 420.184 50.8807 429 53C428.598 44.2202 424.477 36.5189 415 36M431 54C440.104 54.6933 448.618 53.9404 452 44C442.989 44 434.395 44.0409 431 54M350 46C352.551 55.832 356.26 62.1447 367 64C366.107 53.7679 360.727 46.2522 350 46M409 51C404.32 56.8624 404.506 62.1564 407 69L409 69C412.634 62.7426 414.671 56.6823 409 51M370 64C375.869 63.3949 379.783 60.9756 381 55C375.013 55.5433 371.233 57.9076 370 64M339 63C342.182 69.7622 347.942 72.0816 355 70C351.902 63.5127 345.82 61.0036 339 63M3 106C5.67279 120.757 31.8519 125.454 37.1458 109.996C41.0584 98.572 31.2371 92.2129 22 88.6836C17.9248 87.1266 11.2161 85.1732 10.5818 79.9853C8.99347 66.9949 29.4617 77.1903 31 68C25.1145 66.9073 17.6989 65.8139 12.0039 68.2284C4.44647 71.4324 1.66454 80.4852 7.39429 86.787C13.4967 93.4987 24.8145 92.6957 30.3434 100.105C36.8332 108.802 24.795 115.688 17 113.566C11.3399 112.025 9.17833 106.476 3 106M164.643 68.0671C162.453 69.6896 165.404 72.3802 167.357 70.9329C169.547 69.3104 166.596 66.6198 164.643 68.0671M203 67L203 83C195.915 80.3465 185.54 79.5638 182.009 88.0154C180.362 91.9576 181 96.8254 181 101C181 105.622 180.435 110.877 183.653 114.66C189.139 121.108 200.494 119 208 119L208 67L203 67M239 67L239 83C232.208 80.134 221.037 79.6577 217.742 88.0154C216.225 91.8638 217 96.9424 217 101C217 105.556 216.191 111.072 219.434 114.775C224.977 121.107 236.514 119 244 119L244 67L239 67M252 67L252 119L257 119L257 99C257 96.0175 256.356 91.9306 258.028 89.2785C261.475 83.8108 270.197 86.1247 272.821 91.044C276.536 98.009 274 111.232 274 119L279 119C279 105.842 284.315 79.957 264.002 81.2122C261.529 81.3649 259.29 82.1423 257 83L257 67L252 67M295 72L295 67C290.008 67.832 290.008 71.168 295 72M328 69C328.429 78.3643 333.711 84.3945 343 86C341.71 77.2642 337.611 69.5262 328 69M58 81L58 85C62.9785 85.5548 65.6609 87.6 68 92C62.4575 89.8656 55.8275 87.3153 50.044 90.3179C42.9334 94.0095 42.8009 110.394 48.2785 115.581C54.1335 121.125 65.6304 119 73 119L73 97C72.9933 92.9915 73.1996 88.6015 70.3472 85.3943C67.3343 82.0066 62.2542 81.3479 58 81M82 82L82 119L87 119L87 98C87.0014 94.9917 86.4113 90.9435 88.6034 88.5139C92.4927 84.2031 99.5445 86.3739 101.972 91.0193C103.509 93.96 103 97.7973 103 101L103 119L108 119L108 98C108.001 94.9467 107.434 90.9287 109.603 88.4336C113.24 84.2506 120.318 86.2848 122.258 91.044C125.328 98.5784 123 110.916 123 119L128 119L128 97C127.993 92.9571 128.237 88.5242 125.486 85.2137C119.676 78.221 113.067 82.9638 106 83.2191C102.868 83.3324 100.094 81.4942 97 81.2276C92.1387 80.8088 86.965 82.1101 82 82M136 82L136 119L141 119L141 98C141.007 94.662 140.708 90.9643 143.318 88.4336C146.162 85.676 150.35 86.0105 154 86L155 82C148.654 80.8394 142.428 82.1426 136 82M163 82L163 119L168 119L168 82L163 82M290 82L290 119L295 119L295 82L290 82M346 87C351.513 88.6288 357.101 88.5237 360 83C353.957 82.2403 350.075 81.8598 346 87M444 97C451.8 95.5871 456.537 89.9925 455 82C447.666 84.7341 444.636 89.2802 444 97M203 114C198.496 114.836 193.255 115.922 189.228 112.991C184.342 109.435 184.264 93.8312 187.742 89.2284C190.608 85.4357 200.052 84.2343 202.397 89.2785C203.894 92.5 203 97.5312 203 101L203 114M239 114C234.496 114.836 229.255 115.922 225.228 112.991C220.423 109.494 220.193 93.7094 223.603 89.1481C226.462 85.324 236.06 84.2516 238.397 89.2785C239.894 92.5 239 97.5312 239 101L239 114M324 87C324.983 93.1859 328.217 96.729 334 99C333.653 92.3179 330.974 87.779 324 87M306 90C310.043 98.6453 317.323 100.073 326 99C323.48 90.047 314.194 87.5781 306 90M421 91C425.296 99.2077 433.366 101.552 442 99C436.673 91.4598 429.997 87.6555 421 91M474 92C468.17 98.9081 467.306 104.502 470 113C477.938 109.095 480.239 98.4561 474 92M478 112C490.209 111.74 499.423 104.589 500 92C488.076 92.5199 479.221 99.8157 478 112M54.0586 94.6073C57.6791 93.1925 65.5752 94.5813 67.3966 98.3943C68.4434 100.586 68.0038 103.647 68 106C67.9956 108.725 68.5972 112.772 65.6821 114.258C57.5091 118.424 50.0608 111.938 50.0046 104C49.9787 100.342 50.079 96.1624 54.0586 94.6073M458 98C456.382 104.813 457.476 111.837 465 114C464.999 107.252 465.339 100.632 458 98M316 111C322.371 110.343 325.848 107.344 327 101C320.674 101.652 316.727 104.49 316 111M422 109C427.962 111.869 433.314 111.185 439 108L439 106C432.549 103.278 426.582 103.22 422 109M445 109C447.963 110.929 449.855 110.446 453 109C450.08 106.881 448.181 107.499 445 109M339 113C339.155 119.425 341.38 123.66 348 125C347.656 118.716 344.815 115.288 339 113M426 119C431.648 119.998 436.166 119.451 439 114C433.129 112.655 429.593 114.179 426 119M470.667 115.333C470.222 115.778 471.278 115.722 471.333 115.667C471.778 115.222 470.722 115.278 470.667 115.333M477 116C480.82 124.684 486.754 127.977 496 127C492.951 117.478 486.016 116.001 477 116M471 118C470.217 124.631 470.344 130.717 477 134C478.995 127.248 477.672 121.188 471 118M334 130C339.472 131.991 342.879 131.868 348 129L348 127C342.344 125.208 337.181 123.938 334 130M334 147C341.781 144.959 347.52 141.762 348 133C340.012 134.203 334.746 138.782 334 147M351 134C351.061 140.837 352.6 146.493 360 148C359.937 141.078 357.909 136.355 351 134M435 143C440.513 144.629 446.101 144.524 449 139C443.027 137.895 438.983 137.976 435 143M437 147C440.183 153.764 445.824 156.179 453 155C450.863 147.456 444.092 145.332 437 147M432 149C429.368 153.933 430.14 157.895 432 163L434 163C435.996 157.514 436.349 153.358 432 149M213 232L212 228C206.498 228.695 198.968 230.747 194.419 226.427C190.129 222.354 191 215.346 191 210C191 201.146 189.461 187.271 202 187.034C204.711 186.983 207.349 187.508 210 188L211 184C208.331 182.874 205.921 182.176 203 182.04C200.71 181.934 198.246 181.877 196 182.394C183.692 185.227 186 200.483 186 210C186 217.081 184.809 226.532 191.109 231.486C196.948 236.078 206.581 234.035 213 232M359 182L359 234L364 234L364 182L359 182M418.643 183.067C416.453 184.69 419.404 187.38 421.357 185.933C423.547 184.31 420.596 181.62 418.643 183.067M290 224C293.156 236.055 316.43 238.972 316.797 224C316.988 216.223 309.866 213.959 304 211.381C301.442 210.257 297.207 208.4 297.207 205.029C297.207 198.499 307.292 200.532 311 201L312 197C307.787 195.664 303.412 194.27 299.001 195.653C292.639 197.648 288.758 204.802 293.009 210.671C297.114 216.336 306.549 215.203 310.149 221.213C313.408 226.655 305.37 230.486 301.004 228.951C296.813 227.478 294.652 224.363 290 224M229.001 196.533C221.29 198.405 219.18 205.911 219.015 213C218.741 224.759 223.601 237.525 237.999 233.566C245.508 231.502 246.967 223.682 246.999 217C247.055 205.576 243.607 192.988 229.001 196.533M255 197L255 234L260 234L260 214C260 211.018 259.356 206.931 261.028 204.279C264.475 198.811 273.197 201.125 275.821 206.044C279.536 213.009 277 226.232 277 234L282 234L281.999 211C281.974 206.099 281.583 201.174 276.895 198.442C270.356 194.632 262.141 197.158 255 197M440 199C437.887 197.499 436.597 197.178 434 197L434 234L439 234L439 214C439 211.065 438.344 206.989 440.028 204.394C443.542 198.981 452.278 200.993 454.972 206.044C456.525 208.955 456 212.82 456 216L456 234L461 234L461 214C461 210.509 461.566 206.332 460.258 203.015C457.176 195.202 445.931 194.586 440 199M492 231C491.996 236.9 491.892 241.123 487 245L488 249C491.591 248.06 494.781 246.701 496.258 242.981C497.988 238.625 497 232.605 497 228L497 197C494.597 197.168 493.54 197.197 492 199C489.739 197.734 487.613 196.577 484.998 196.216C463.422 193.24 462.295 236.266 484.998 233.893C487.81 233.599 489.69 232.525 492 231M322 197C322 210.609 317.083 236.08 337.998 233.893C340.81 233.599 342.69 232.525 345 231C345.654 234.054 347.007 233.936 350 234L350 197L345 197C345 204.755 346.588 214.515 344.427 221.999C343.28 225.973 339.498 229.988 335.001 229.377C331.323 228.878 328.373 225.417 327.434 221.999C325.379 214.529 327 204.729 327 197L322 197M418 197L418 234L423 234L423 197L418 197M230.019 201.604C244.763 196.003 246.573 225.392 235.985 229.242C222.314 234.214 220.772 205.117 230.019 201.604M481.005 201.438C495.47 197.617 496.338 226.67 484.996 229.387C471.188 232.696 469.635 204.441 481.005 201.438z"/>
</svg>
